<svg width="1500" height="1500" viewBox="0 0 1500 1500" fill="none" xmlns="http://www.w3.org/2000/svg">
<path d="M1164.81 300C1191.65 310.721 1200.07 330.928 1200 359.088C1199.39 619.511 1199.7 879.936 1199.6 1140.36C1199.58 1186.13 1185.85 1199.69 1140.28 1199.75C1063.5 1199.86 986.721 1199.96 909.944 1199.68C861.831 1199.51 841.566 1177.54 839.617 1128.91C837.923 1086.63 839.853 1042.56 828.206 1002.8C817.887 967.56 792.203 936.403 771.137 904.893C758.496 885.985 743.019 889 727.374 905.083C686.562 947.037 663.236 996.438 660.809 1055.01C659.693 1081.94 661.037 1108.97 660.178 1135.92C658.905 1175.84 635.239 1199.38 595.239 1199.62C513.276 1200.13 431.305 1200.13 349.343 1199.6C316.092 1199.39 300.202 1183.06 300.172 1149.19C299.938 883.575 299.949 617.963 300.167 352.35C300.196 316.844 316.023 301.059 351.464 300.899C437.579 300.509 523.698 300.475 609.813 300.921C643.356 301.095 659.3 317.065 660.135 350.53C660.912 381.638 659.696 412.8 660.685 443.897C662.549 502.534 685.892 551.989 726.004 594.427C742.257 611.622 755.507 612.766 772.62 595.099C813.399 553.001 836.372 503.444 838.946 444.99C840.314 413.918 839.415 382.752 840.062 351.64C840.805 315.982 855.734 301.007 891.851 300.838C979.004 300.431 1066.16 300.609 1157.55 300.559C1161.78 300.568 1164.81 300 1164.81 300ZM390.836 687.588C390.73 799.16 390.445 910.732 390.653 1022.3C390.701 1047.97 392.444 1073.63 394.798 1104.11C398.34 1106.1 401.863 1109.78 405.428 1109.82C453.879 1110.37 502.341 1110.78 550.785 1110.08C556.21 1110 561.534 1102.94 568.963 1093.76C569.179 1087.55 569.562 1081.34 569.586 1075.12C570.083 942.675 627.188 841.929 745.738 783.268C863.164 725.165 976.981 740.82 1082 819.3C1088.02 823.8 1095.05 826.957 1103.62 831.903C1106.36 823.629 1109.23 818.988 1109.24 814.342C1109.51 681.612 1109.69 548.881 1109.03 416.155C1108.99 408.609 1101.69 401.099 1093.44 390.677C1042.62 391.659 991.807 392.64 936.18 395.584C934.028 410.504 930.193 425.399 929.98 440.347C927.554 610.97 788.499 748.955 617.959 750.716C537.594 751.547 469.152 721.454 404.028 671.67C400.241 675.115 396.454 678.561 390.836 687.588ZM1101.42 1006.16C1063.18 889.894 928.828 805.863 851.18 851.198C853.393 855.518 854.975 860.444 857.993 864.223C908.513 927.481 932.992 999.436 929.443 1080.37C928.399 1104.18 939.448 1111.44 961.31 1110.36C981.968 1109.33 1002.72 1110.14 1023.42 1110.14C1121.25 1110.14 1121.25 1110.14 1101.42 1006.16ZM530.299 642.868C568.263 657.022 606.615 666.153 647.798 654.661C647.106 648.905 647.819 645.119 646.25 643.195C591.442 575.969 566.313 499.18 568.322 412.443C568.484 405.439 551.907 392.343 542.553 391.809C502.217 389.508 461.643 391.789 421.218 390.471C398.204 389.72 390.012 398.166 390.157 421.124C390.796 522.282 435.485 595.509 530.299 642.868Z" fill="white"/>
</svg>
