<svg width="1000" height="1000" viewBox="0 0 1000 1000" fill="none" xmlns="http://www.w3.org/2000/svg">
<path d="M914.81 50C941.645 60.7212 950.065 80.928 950 109.088C949.393 369.511 949.704 629.936 949.6 890.361C949.581 936.128 935.851 949.689 890.279 949.751C813.501 949.855 736.721 949.956 659.944 949.681C611.831 949.509 591.566 927.545 589.618 878.911C587.923 836.625 589.853 792.564 578.206 752.795C567.887 717.56 542.203 686.403 521.137 654.893C508.496 635.985 493.019 639 477.374 655.083C436.562 697.037 413.236 746.438 410.809 805.011C409.693 831.943 411.037 858.972 410.178 885.922C408.905 925.843 385.239 949.377 345.239 949.625C263.276 950.132 181.305 950.131 99.3425 949.603C66.0919 949.389 50.2019 933.056 50.1721 899.187C49.9379 633.575 49.9491 367.963 50.1669 102.35C50.196 66.8436 66.0228 51.059 101.464 50.8987C187.579 50.5092 273.698 50.4752 359.813 50.9215C393.356 51.0953 409.3 67.0653 410.135 100.53C410.912 131.638 409.696 162.8 410.685 193.897C412.549 252.534 435.892 301.989 476.004 344.427C492.257 361.622 505.507 362.766 522.62 345.099C563.399 303.001 586.372 253.444 588.946 194.99C590.314 163.918 589.415 132.752 590.062 101.64C590.805 65.9817 605.734 51.007 641.851 50.8382C729.004 50.4311 816.16 50.6085 907.547 50.559C911.779 50.5677 914.81 50 914.81 50ZM140.836 437.588C140.73 549.16 140.445 660.732 140.653 772.304C140.701 797.966 142.444 823.626 144.798 854.114C148.34 856.101 151.863 859.778 155.428 859.818C203.879 860.368 252.341 860.777 300.785 860.078C306.21 860 311.534 852.939 318.963 843.762C319.179 837.549 319.562 831.337 319.586 825.124C320.083 692.675 377.188 591.929 495.738 533.268C613.164 475.165 726.981 490.82 832.003 569.3C838.024 573.8 845.047 576.957 853.622 581.903C856.36 573.629 859.229 568.988 859.239 564.342C859.512 431.612 859.69 298.881 859.028 166.155C858.99 158.609 851.69 151.099 843.436 140.677C792.622 141.659 741.807 142.64 686.18 145.584C684.028 160.504 680.193 175.399 679.98 190.347C677.554 360.97 538.499 498.955 367.959 500.716C287.594 501.547 219.152 471.454 154.028 421.67C150.241 425.115 146.454 428.561 140.836 437.588ZM851.422 756.158C813.178 639.894 678.828 555.863 601.18 601.198C603.393 605.518 604.975 610.444 607.993 614.223C658.513 677.481 682.992 749.436 679.443 830.373C678.399 854.18 689.448 861.439 711.31 860.357C731.968 859.334 752.716 860.14 773.425 860.14C871.254 860.141 871.254 860.14 851.422 756.158ZM280.299 392.868C318.263 407.022 356.615 416.153 397.798 404.661C397.106 398.905 397.819 395.119 396.25 393.195C341.442 325.969 316.313 249.18 318.322 162.443C318.484 155.439 301.907 142.343 292.553 141.809C252.217 139.508 211.643 141.789 171.218 140.471C148.204 139.72 140.012 148.166 140.157 171.124C140.796 272.282 185.485 345.509 280.299 392.868Z" fill="white"/>
</svg>
